


<svg xmlns="http://www.w3.org/2000/svg" >
    <symbol id="tiktok" viewBox="0 0 48 48"  clip-rule="evenodd" >
      <linearGradient id="dYJkfAQNfP2dCzgdw4ruIa" x1="23.672" x2="23.672" y1="6.365" y2="42.252" gradientTransform="translate(.305 -.206)" gradientUnits="userSpaceOnUse"><stop offset="0" stop-color="#4c4c4c"/><stop offset="1" stop-color="#343434"/></linearGradient><path fill="#000" d="M40.004,41.969L8.031,42c-1.099,0.001-1.999-0.897-2-1.996L6,8.031	c-0.001-1.099,0.897-1.999,1.996-2L39.969,6c1.099-0.001,1.999,0.897,2,1.996L42,39.969C42.001,41.068,41.103,41.968,40.004,41.969z"/><path fill="#ec407a" fill-rule="evenodd" d="M29.208,20.607c1.576,1.126,3.507,1.788,5.592,1.788v-4.011	c-0.395,0-0.788-0.041-1.174-0.123v3.157c-2.085,0-4.015-0.663-5.592-1.788v8.184c0,4.094-3.321,7.413-7.417,7.413	c-1.528,0-2.949-0.462-4.129-1.254c1.347,1.376,3.225,2.23,5.303,2.23c4.096,0,7.417-3.319,7.417-7.413V20.607L29.208,20.607z M30.657,16.561c-0.805-0.879-1.334-2.016-1.449-3.273v-0.516h-1.113C28.375,14.369,29.331,15.734,30.657,16.561L30.657,16.561z M19.079,30.832c-0.45-0.59-0.693-1.311-0.692-2.053c0-1.873,1.519-3.391,3.393-3.391c0.349,0,0.696,0.053,1.029,0.159v-4.1	c-0.389-0.053-0.781-0.076-1.174-0.068v3.191c-0.333-0.106-0.68-0.159-1.03-0.159c-1.874,0-3.393,1.518-3.393,3.391	C17.213,29.127,17.972,30.274,19.079,30.832z" clip-rule="evenodd"/><path fill="#fff" fill-rule="evenodd" d="M28.034,19.63c1.576,1.126,3.507,1.788,5.592,1.788v-3.157	c-1.164-0.248-2.194-0.856-2.969-1.701c-1.326-0.827-2.281-2.191-2.561-3.788h-2.923V28.79c-0.007,1.867-1.523,3.379-3.393,3.379	c-1.102,0-2.081-0.525-2.701-1.338c-1.107-0.558-1.866-1.705-1.866-3.029c0-1.873,1.519-3.391,3.393-3.391	c0.359,0,0.705,0.056,1.03,0.159v-3.19c-4.024,0.083-7.26,3.369-7.26,7.411c0,2.018,0.806,3.847,2.114,5.183	c1.18,0.792,2.601,1.254,4.129,1.254c4.096,0,7.417-3.319,7.417-7.413L28.034,19.63L28.034,19.63z" clip-rule="evenodd"/><path fill="#81d4fa" fill-rule="evenodd" d="M33.626,18.262v-0.854c-1.05,0.002-2.078-0.292-2.969-0.848	C31.445,17.423,32.483,18.018,33.626,18.262z M28.095,12.772c-0.027-0.153-0.047-0.306-0.061-0.461v-0.516h-4.036v16.019	c-0.006,1.867-1.523,3.379-3.393,3.379c-0.549,0-1.067-0.13-1.526-0.362c0.62,0.813,1.599,1.338,2.701,1.338	c1.87,0,3.386-1.512,3.393-3.379V12.772H28.095z M21.635,21.38v-0.909c-0.337-0.046-0.677-0.069-1.018-0.069	c-4.097,0-7.417,3.319-7.417,7.413c0,2.567,1.305,4.829,3.288,6.159c-1.308-1.336-2.114-3.165-2.114-5.183	C14.374,24.749,17.611,21.463,21.635,21.38z" clip-rule="evenodd"/>
    </symbol>
 	<symbol id="vk" viewBox="0 0 256 256" >
		<g fill="#4D76A1" fill-rule="nonzero" stroke="none" stroke-width="1" stroke-linecap="butt" stroke-linejoin="miter" stroke-miterlimit="10" stroke-dasharray="" stroke-dashoffset="0" font-family="none" font-weight="none" font-size="none" text-anchor="none" style="mix-blend-mode: normal"><g transform="scale(5.33333,5.33333)"><path d="M24,4c-11.04569,0 -20,8.95431 -20,20c0,11.04569 8.95431,20 20,20c11.04569,0 20,-8.95431 20,-20c0,-11.04569 -8.95431,-20 -20,-20z" fill="#4D76A1"></path><path d="M35.937,18.041c0.046,-0.151 0.068,-0.291 0.062,-0.416c-0.015,-0.362 -0.264,-0.625 -0.85,-0.625h-2.618c-0.661,0 -0.966,0.4 -1.144,0.801c0,0 -1.632,3.359 -3.513,5.574c-0.61,0.641 -0.92,0.625 -1.25,0.625c-0.177,0 -0.624,-0.214 -0.624,-0.801v-5.185c0,-0.694 -0.173,-1.014 -0.732,-1.014h-4.649c-0.407,0 -0.619,0.32 -0.619,0.641c0,0.667 0.898,0.827 1,2.696v3.623c0,0.88 -0.153,1.04 -0.483,1.04c-0.89,0 -2.642,-3 -3.815,-6.932c-0.254,-0.774 -0.508,-1.068 -1.169,-1.068h-2.643c-0.763,0 -0.89,0.374 -0.89,0.774c0,0.721 0.6,4.619 3.875,9.101c2.375,3.25 5.504,5.125 8.274,5.125c1.678,0 1.85,-0.427 1.85,-1.094v-2.972c0.001,-0.801 0.184,-0.934 0.718,-0.934c0.381,0 1.158,0.25 2.658,2c1.73,2.018 2.044,3 3.036,3h2.618c0.608,0 0.957,-0.255 0.971,-0.75c0.003,-0.126 -0.015,-0.267 -0.056,-0.424c-0.194,-0.576 -1.084,-1.984 -2.194,-3.326c-0.615,-0.743 -1.222,-1.479 -1.501,-1.879c-0.187,-0.261 -0.258,-0.445 -0.249,-0.621c0.009,-0.185 0.105,-0.361 0.249,-0.607c-0.026,0 3.358,-4.751 3.688,-6.352z" fill="#ffffff"></path></g></g>
     </symbol>
 	<symbol id="telegram" viewBox="0 0 48 48">
	<linearGradient id="BiF7D16UlC0RZ_VqXJHnXa" x1="9.858" x2="38.142" y1="9.858" y2="38.142" gradientUnits="userSpaceOnUse"><stop offset="0" stop-color="#33bef0"/><stop offset="1" stop-color="#0a85d9"/></linearGradient><path fill="#34AADF" d="M44,24c0,11.045-8.955,20-20,20S4,35.045,4,24S12.955,4,24,4S44,12.955,44,24z"/>
	<path d="M10.119,23.466c8.155-3.695,17.733-7.704,19.208-8.284c3.252-1.279,4.67,0.028,4.448,2.113	c-0.273,2.555-1.567,9.99-2.363,15.317c-0.466,3.117-2.154,4.072-4.059,2.863c-1.445-0.917-6.413-4.17-7.72-5.282	c-0.891-0.758-1.512-1.608-0.88-2.474c0.185-0.253,0.658-0.763,0.921-1.017c1.319-1.278,1.141-1.553-0.454-0.412	c-0.19,0.136-1.292,0.935-1.745,1.237c-1.11,0.74-2.131,0.78-3.862,0.192c-1.416-0.481-2.776-0.852-3.634-1.223	C8.794,25.983,8.34,24.272,10.119,23.466z" opacity=".05"/>
	<path d="M10.836,23.591c7.572-3.385,16.884-7.264,18.246-7.813c3.264-1.318,4.465-0.536,4.114,2.011	c-0.326,2.358-1.483,9.654-2.294,14.545c-0.478,2.879-1.874,3.513-3.692,2.337c-1.139-0.734-5.723-3.754-6.835-4.633	c-0.86-0.679-1.751-1.463-0.71-2.598c0.348-0.379,2.27-2.234,3.707-3.614c0.833-0.801,0.536-1.196-0.469-0.508	c-1.843,1.263-4.858,3.262-5.396,3.625c-1.025,0.69-1.988,0.856-3.664,0.329c-1.321-0.416-2.597-0.819-3.262-1.078	C9.095,25.618,9.075,24.378,10.836,23.591z" opacity=".07"/>
	<path fill="#fff" d="M11.553,23.717c6.99-3.075,16.035-6.824,17.284-7.343c3.275-1.358,4.28-1.098,3.779,1.91	c-0.36,2.162-1.398,9.319-2.226,13.774c-0.491,2.642-1.593,2.955-3.325,1.812c-0.833-0.55-5.038-3.331-5.951-3.984	c-0.833-0.595-1.982-1.311-0.541-2.721c0.513-0.502,3.874-3.712,6.493-6.21c0.343-0.328-0.088-0.867-0.484-0.604	c-3.53,2.341-8.424,5.59-9.047,6.013c-0.941,0.639-1.845,0.932-3.467,0.466c-1.226-0.352-2.423-0.772-2.889-0.932	C9.384,25.282,9.81,24.484,11.553,23.717z"/>
     </symbol>
 	
</svg>
